<mxfile host="app.diagrams.net" modified="2024-05-22T06:14:32.934Z" agent="Mozilla/5.0 (Windows NT 10.0; Win64; x64) AppleWebKit/537.36 (KHTML, like Gecko) Chrome/125.0.0.0 Safari/537.36" etag="lPDF5y7RtYMO6jb7HFVp" version="24.4.4" type="device">
  <diagram name="main_menu" id="qB6oAMNJOPlMdZmkgFZm">
    <mxGraphModel dx="1207" dy="651" grid="1" gridSize="10" guides="1" tooltips="1" connect="1" arrows="1" fold="1" page="1" pageScale="1" pageWidth="827" pageHeight="1169" math="0" shadow="0">
      <root>
        <mxCell id="0" />
        <mxCell id="1" parent="0" />
        <mxCell id="FlhT3UEW_0sr5WWhTw8I-1" value="" style="edgeStyle=orthogonalEdgeStyle;rounded=0;orthogonalLoop=1;jettySize=auto;html=1;" parent="1" source="FlhT3UEW_0sr5WWhTw8I-2" target="FlhT3UEW_0sr5WWhTw8I-4" edge="1">
          <mxGeometry relative="1" as="geometry" />
        </mxCell>
        <mxCell id="FlhT3UEW_0sr5WWhTw8I-2" value="Mulai" style="strokeWidth=2;html=1;shape=mxgraph.flowchart.terminator;whiteSpace=wrap;" parent="1" vertex="1">
          <mxGeometry x="364" y="10" width="100" height="60" as="geometry" />
        </mxCell>
        <mxCell id="FlhT3UEW_0sr5WWhTw8I-3" value="" style="edgeStyle=orthogonalEdgeStyle;rounded=0;orthogonalLoop=1;jettySize=auto;html=1;" parent="1" source="FlhT3UEW_0sr5WWhTw8I-4" target="FlhT3UEW_0sr5WWhTw8I-7" edge="1">
          <mxGeometry relative="1" as="geometry" />
        </mxCell>
        <mxCell id="FlhT3UEW_0sr5WWhTw8I-4" value="Menu program selamat&amp;nbsp;&lt;div&gt;datang&lt;/div&gt;" style="shape=parallelogram;html=1;strokeWidth=2;perimeter=parallelogramPerimeter;whiteSpace=wrap;rounded=1;arcSize=12;size=0.17250000000000001;" parent="1" vertex="1">
          <mxGeometry x="317.5" y="100" width="193" height="60" as="geometry" />
        </mxCell>
        <mxCell id="FlhT3UEW_0sr5WWhTw8I-5" value="" style="edgeStyle=orthogonalEdgeStyle;rounded=0;orthogonalLoop=1;jettySize=auto;html=1;" parent="1" source="FlhT3UEW_0sr5WWhTw8I-7" target="FlhT3UEW_0sr5WWhTw8I-10" edge="1">
          <mxGeometry relative="1" as="geometry" />
        </mxCell>
        <mxCell id="FlhT3UEW_0sr5WWhTw8I-6" style="edgeStyle=orthogonalEdgeStyle;rounded=0;orthogonalLoop=1;jettySize=auto;html=1;exitX=1;exitY=0.5;exitDx=0;exitDy=0;entryX=0;entryY=0.5;entryDx=0;entryDy=0;" parent="1" source="FlhT3UEW_0sr5WWhTw8I-7" target="FlhT3UEW_0sr5WWhTw8I-31" edge="1">
          <mxGeometry relative="1" as="geometry" />
        </mxCell>
        <mxCell id="FlhT3UEW_0sr5WWhTw8I-7" value="Opsi 1" style="rhombus;whiteSpace=wrap;html=1;" parent="1" vertex="1">
          <mxGeometry x="368" y="200" width="92" height="90" as="geometry" />
        </mxCell>
        <mxCell id="FlhT3UEW_0sr5WWhTw8I-8" value="" style="edgeStyle=orthogonalEdgeStyle;rounded=0;orthogonalLoop=1;jettySize=auto;html=1;" parent="1" source="FlhT3UEW_0sr5WWhTw8I-10" target="FlhT3UEW_0sr5WWhTw8I-13" edge="1">
          <mxGeometry relative="1" as="geometry" />
        </mxCell>
        <mxCell id="FlhT3UEW_0sr5WWhTw8I-9" style="edgeStyle=orthogonalEdgeStyle;rounded=0;orthogonalLoop=1;jettySize=auto;html=1;exitX=1;exitY=0.5;exitDx=0;exitDy=0;entryX=0;entryY=0.5;entryDx=0;entryDy=0;" parent="1" source="FlhT3UEW_0sr5WWhTw8I-10" target="FlhT3UEW_0sr5WWhTw8I-32" edge="1">
          <mxGeometry relative="1" as="geometry" />
        </mxCell>
        <mxCell id="FlhT3UEW_0sr5WWhTw8I-10" value="Opsi 2" style="rhombus;whiteSpace=wrap;html=1;" parent="1" vertex="1">
          <mxGeometry x="368" y="320" width="92" height="90" as="geometry" />
        </mxCell>
        <mxCell id="FlhT3UEW_0sr5WWhTw8I-11" value="" style="edgeStyle=orthogonalEdgeStyle;rounded=0;orthogonalLoop=1;jettySize=auto;html=1;" parent="1" source="FlhT3UEW_0sr5WWhTw8I-13" target="FlhT3UEW_0sr5WWhTw8I-16" edge="1">
          <mxGeometry relative="1" as="geometry" />
        </mxCell>
        <mxCell id="FlhT3UEW_0sr5WWhTw8I-12" style="edgeStyle=orthogonalEdgeStyle;rounded=0;orthogonalLoop=1;jettySize=auto;html=1;exitX=1;exitY=0.5;exitDx=0;exitDy=0;entryX=0;entryY=0.5;entryDx=0;entryDy=0;" parent="1" source="FlhT3UEW_0sr5WWhTw8I-13" target="FlhT3UEW_0sr5WWhTw8I-33" edge="1">
          <mxGeometry relative="1" as="geometry" />
        </mxCell>
        <mxCell id="FlhT3UEW_0sr5WWhTw8I-13" value="Opsi 3" style="rhombus;whiteSpace=wrap;html=1;" parent="1" vertex="1">
          <mxGeometry x="368" y="450" width="92" height="90" as="geometry" />
        </mxCell>
        <mxCell id="FlhT3UEW_0sr5WWhTw8I-14" value="" style="edgeStyle=orthogonalEdgeStyle;rounded=0;orthogonalLoop=1;jettySize=auto;html=1;" parent="1" source="FlhT3UEW_0sr5WWhTw8I-16" target="FlhT3UEW_0sr5WWhTw8I-19" edge="1">
          <mxGeometry relative="1" as="geometry" />
        </mxCell>
        <mxCell id="FlhT3UEW_0sr5WWhTw8I-15" style="edgeStyle=orthogonalEdgeStyle;rounded=0;orthogonalLoop=1;jettySize=auto;html=1;exitX=1;exitY=0.5;exitDx=0;exitDy=0;entryX=0;entryY=0.5;entryDx=0;entryDy=0;" parent="1" source="FlhT3UEW_0sr5WWhTw8I-16" target="FlhT3UEW_0sr5WWhTw8I-34" edge="1">
          <mxGeometry relative="1" as="geometry" />
        </mxCell>
        <mxCell id="FlhT3UEW_0sr5WWhTw8I-16" value="Opsi 4" style="rhombus;whiteSpace=wrap;html=1;" parent="1" vertex="1">
          <mxGeometry x="368" y="580" width="92" height="90" as="geometry" />
        </mxCell>
        <mxCell id="FlhT3UEW_0sr5WWhTw8I-17" value="" style="edgeStyle=orthogonalEdgeStyle;rounded=0;orthogonalLoop=1;jettySize=auto;html=1;" parent="1" source="FlhT3UEW_0sr5WWhTw8I-19" target="FlhT3UEW_0sr5WWhTw8I-22" edge="1">
          <mxGeometry relative="1" as="geometry" />
        </mxCell>
        <mxCell id="FlhT3UEW_0sr5WWhTw8I-18" style="edgeStyle=orthogonalEdgeStyle;rounded=0;orthogonalLoop=1;jettySize=auto;html=1;exitX=1;exitY=0.5;exitDx=0;exitDy=0;entryX=0;entryY=0.5;entryDx=0;entryDy=0;" parent="1" source="FlhT3UEW_0sr5WWhTw8I-19" target="FlhT3UEW_0sr5WWhTw8I-35" edge="1">
          <mxGeometry relative="1" as="geometry" />
        </mxCell>
        <mxCell id="FlhT3UEW_0sr5WWhTw8I-19" value="Opsi 5" style="rhombus;whiteSpace=wrap;html=1;" parent="1" vertex="1">
          <mxGeometry x="368" y="720" width="92" height="90" as="geometry" />
        </mxCell>
        <mxCell id="FlhT3UEW_0sr5WWhTw8I-20" value="" style="edgeStyle=orthogonalEdgeStyle;rounded=0;orthogonalLoop=1;jettySize=auto;html=1;" parent="1" source="FlhT3UEW_0sr5WWhTw8I-22" target="FlhT3UEW_0sr5WWhTw8I-25" edge="1">
          <mxGeometry relative="1" as="geometry" />
        </mxCell>
        <mxCell id="FlhT3UEW_0sr5WWhTw8I-21" style="edgeStyle=orthogonalEdgeStyle;rounded=0;orthogonalLoop=1;jettySize=auto;html=1;exitX=1;exitY=0.5;exitDx=0;exitDy=0;entryX=0;entryY=0.5;entryDx=0;entryDy=0;" parent="1" source="FlhT3UEW_0sr5WWhTw8I-22" target="FlhT3UEW_0sr5WWhTw8I-36" edge="1">
          <mxGeometry relative="1" as="geometry" />
        </mxCell>
        <mxCell id="FlhT3UEW_0sr5WWhTw8I-22" value="Opsi 6" style="rhombus;whiteSpace=wrap;html=1;" parent="1" vertex="1">
          <mxGeometry x="368" y="850" width="92" height="90" as="geometry" />
        </mxCell>
        <mxCell id="FlhT3UEW_0sr5WWhTw8I-23" value="" style="edgeStyle=orthogonalEdgeStyle;rounded=0;orthogonalLoop=1;jettySize=auto;html=1;" parent="1" source="FlhT3UEW_0sr5WWhTw8I-25" target="FlhT3UEW_0sr5WWhTw8I-26" edge="1">
          <mxGeometry relative="1" as="geometry" />
        </mxCell>
        <mxCell id="FlhT3UEW_0sr5WWhTw8I-24" value="" style="edgeStyle=orthogonalEdgeStyle;rounded=0;orthogonalLoop=1;jettySize=auto;html=1;entryX=0.461;entryY=1.006;entryDx=0;entryDy=0;entryPerimeter=0;" parent="1" edge="1">
          <mxGeometry relative="1" as="geometry">
            <mxPoint x="379.03" y="1024.64" as="sourcePoint" />
            <mxPoint x="160.00299999999996" y="469.9999999999999" as="targetPoint" />
          </mxGeometry>
        </mxCell>
        <mxCell id="FlhT3UEW_0sr5WWhTw8I-25" value="Opsi 7" style="rhombus;whiteSpace=wrap;html=1;" parent="1" vertex="1">
          <mxGeometry x="368" y="980" width="92" height="90" as="geometry" />
        </mxCell>
        <mxCell id="FlhT3UEW_0sr5WWhTw8I-26" value="Selesai" style="strokeWidth=2;html=1;shape=mxgraph.flowchart.terminator;whiteSpace=wrap;" parent="1" vertex="1">
          <mxGeometry x="364" y="1100" width="100" height="60" as="geometry" />
        </mxCell>
        <mxCell id="FlhT3UEW_0sr5WWhTw8I-27" style="edgeStyle=orthogonalEdgeStyle;rounded=0;orthogonalLoop=1;jettySize=auto;html=1;exitX=0.5;exitY=0;exitDx=0;exitDy=0;entryX=0;entryY=0.75;entryDx=0;entryDy=0;" parent="1" source="FlhT3UEW_0sr5WWhTw8I-28" target="FlhT3UEW_0sr5WWhTw8I-4" edge="1">
          <mxGeometry relative="1" as="geometry">
            <Array as="points">
              <mxPoint x="157" y="144" />
            </Array>
          </mxGeometry>
        </mxCell>
        <mxCell id="FlhT3UEW_0sr5WWhTw8I-28" value="Input yang dimasukkan&amp;nbsp;&lt;div&gt;salah&lt;/div&gt;" style="shape=parallelogram;html=1;strokeWidth=2;perimeter=parallelogramPerimeter;whiteSpace=wrap;rounded=1;arcSize=12;size=0.17250000000000001;" parent="1" vertex="1">
          <mxGeometry x="60" y="410" width="193" height="60" as="geometry" />
        </mxCell>
        <mxCell id="FlhT3UEW_0sr5WWhTw8I-29" style="edgeStyle=orthogonalEdgeStyle;rounded=0;orthogonalLoop=1;jettySize=auto;html=1;exitX=1;exitY=0.25;exitDx=0;exitDy=0;entryX=0;entryY=0.25;entryDx=0;entryDy=0;" parent="1" source="FlhT3UEW_0sr5WWhTw8I-30" target="FlhT3UEW_0sr5WWhTw8I-4" edge="1">
          <mxGeometry relative="1" as="geometry">
            <Array as="points">
              <mxPoint x="90" y="119" />
            </Array>
          </mxGeometry>
        </mxCell>
        <mxCell id="FlhT3UEW_0sr5WWhTw8I-30" value="&lt;font style=&quot;font-size: 12px;&quot;&gt;G&lt;/font&gt;" style="verticalLabelPosition=middle;verticalAlign=middle;html=1;shape=offPageConnector;rounded=0;size=0.5;whiteSpace=wrap;textShadow=0;labelBorderColor=none;labelBackgroundColor=none;fontColor=default;labelPosition=center;align=center;" parent="1" vertex="1">
          <mxGeometry x="60" y="90" width="60" height="60" as="geometry" />
        </mxCell>
        <mxCell id="FlhT3UEW_0sr5WWhTw8I-31" value="&lt;font style=&quot;font-size: 12px;&quot;&gt;A&lt;/font&gt;" style="verticalLabelPosition=middle;verticalAlign=middle;html=1;shape=offPageConnector;rounded=0;size=0.5833333333333334;whiteSpace=wrap;textShadow=0;labelBorderColor=none;labelBackgroundColor=none;fontColor=default;labelPosition=center;align=center;" parent="1" vertex="1">
          <mxGeometry x="590" y="215" width="60" height="60" as="geometry" />
        </mxCell>
        <mxCell id="FlhT3UEW_0sr5WWhTw8I-32" value="&lt;font style=&quot;font-size: 12px;&quot;&gt;B&lt;/font&gt;" style="verticalLabelPosition=middle;verticalAlign=middle;html=1;shape=offPageConnector;rounded=0;size=0.5833333333333334;whiteSpace=wrap;textShadow=0;labelBorderColor=none;labelBackgroundColor=none;fontColor=default;labelPosition=center;align=center;" parent="1" vertex="1">
          <mxGeometry x="590" y="335" width="60" height="60" as="geometry" />
        </mxCell>
        <mxCell id="FlhT3UEW_0sr5WWhTw8I-33" value="&lt;font style=&quot;font-size: 12px;&quot;&gt;C&lt;/font&gt;" style="verticalLabelPosition=middle;verticalAlign=middle;html=1;shape=offPageConnector;rounded=0;size=0.5833333333333334;whiteSpace=wrap;textShadow=0;labelBorderColor=none;labelBackgroundColor=none;fontColor=default;labelPosition=center;align=center;" parent="1" vertex="1">
          <mxGeometry x="590" y="465" width="60" height="60" as="geometry" />
        </mxCell>
        <mxCell id="FlhT3UEW_0sr5WWhTw8I-34" value="D" style="verticalLabelPosition=middle;verticalAlign=middle;html=1;shape=offPageConnector;rounded=0;size=0.5833333333333334;whiteSpace=wrap;textShadow=0;labelBorderColor=none;labelBackgroundColor=none;fontColor=default;labelPosition=center;align=center;" parent="1" vertex="1">
          <mxGeometry x="590" y="595" width="60" height="60" as="geometry" />
        </mxCell>
        <mxCell id="FlhT3UEW_0sr5WWhTw8I-35" value="&lt;font style=&quot;font-size: 12px;&quot;&gt;E&lt;/font&gt;" style="verticalLabelPosition=middle;verticalAlign=middle;html=1;shape=offPageConnector;rounded=0;size=0.5833333333333334;whiteSpace=wrap;textShadow=0;labelBorderColor=none;labelBackgroundColor=none;fontColor=default;labelPosition=center;align=center;" parent="1" vertex="1">
          <mxGeometry x="590" y="735" width="60" height="60" as="geometry" />
        </mxCell>
        <mxCell id="FlhT3UEW_0sr5WWhTw8I-36" value="&lt;font style=&quot;font-size: 12px;&quot;&gt;F&lt;/font&gt;" style="verticalLabelPosition=middle;verticalAlign=middle;html=1;shape=offPageConnector;rounded=0;size=0.5833333333333334;whiteSpace=wrap;textShadow=0;labelBorderColor=none;labelBackgroundColor=none;fontColor=default;labelPosition=center;align=center;" parent="1" vertex="1">
          <mxGeometry x="590" y="865" width="60" height="60" as="geometry" />
        </mxCell>
        <mxCell id="FlhT3UEW_0sr5WWhTw8I-37" value="Menu Utama" style="text;strokeColor=none;align=center;fillColor=none;html=1;verticalAlign=middle;whiteSpace=wrap;rounded=0;fontStyle=1;fontSize=18;" parent="1" vertex="1">
          <mxGeometry x="5" y="10" width="110" height="30" as="geometry" />
        </mxCell>
        <mxCell id="Van973CGo2YsoL5uyhcO-1" value="Ya" style="text;html=1;align=center;verticalAlign=middle;resizable=0;points=[];autosize=1;strokeColor=none;fillColor=none;" parent="1" vertex="1">
          <mxGeometry x="500" y="215" width="40" height="30" as="geometry" />
        </mxCell>
        <mxCell id="Van973CGo2YsoL5uyhcO-2" value="Ya" style="text;html=1;align=center;verticalAlign=middle;resizable=0;points=[];autosize=1;strokeColor=none;fillColor=none;" parent="1" vertex="1">
          <mxGeometry x="500" y="335" width="40" height="30" as="geometry" />
        </mxCell>
        <mxCell id="Van973CGo2YsoL5uyhcO-3" value="Ya" style="text;html=1;align=center;verticalAlign=middle;resizable=0;points=[];autosize=1;strokeColor=none;fillColor=none;" parent="1" vertex="1">
          <mxGeometry x="500" y="460" width="40" height="30" as="geometry" />
        </mxCell>
        <mxCell id="Van973CGo2YsoL5uyhcO-4" value="Ya" style="text;html=1;align=center;verticalAlign=middle;resizable=0;points=[];autosize=1;strokeColor=none;fillColor=none;" parent="1" vertex="1">
          <mxGeometry x="500" y="595" width="40" height="30" as="geometry" />
        </mxCell>
        <mxCell id="Van973CGo2YsoL5uyhcO-5" value="Ya" style="text;html=1;align=center;verticalAlign=middle;resizable=0;points=[];autosize=1;strokeColor=none;fillColor=none;" parent="1" vertex="1">
          <mxGeometry x="500" y="735" width="40" height="30" as="geometry" />
        </mxCell>
        <mxCell id="Van973CGo2YsoL5uyhcO-6" value="Ya" style="text;html=1;align=center;verticalAlign=middle;resizable=0;points=[];autosize=1;strokeColor=none;fillColor=none;" parent="1" vertex="1">
          <mxGeometry x="500" y="860" width="40" height="30" as="geometry" />
        </mxCell>
        <mxCell id="Van973CGo2YsoL5uyhcO-7" value="Ya" style="text;html=1;align=center;verticalAlign=middle;resizable=0;points=[];autosize=1;strokeColor=none;fillColor=none;" parent="1" vertex="1">
          <mxGeometry x="420" y="1060" width="40" height="30" as="geometry" />
        </mxCell>
        <mxCell id="Van973CGo2YsoL5uyhcO-8" value="Tidak" style="text;html=1;align=center;verticalAlign=middle;resizable=0;points=[];autosize=1;strokeColor=none;fillColor=none;" parent="1" vertex="1">
          <mxGeometry x="240" y="1000" width="50" height="30" as="geometry" />
        </mxCell>
        <mxCell id="Van973CGo2YsoL5uyhcO-9" value="Tidak" style="text;html=1;align=center;verticalAlign=middle;resizable=0;points=[];autosize=1;strokeColor=none;fillColor=none;" parent="1" vertex="1">
          <mxGeometry x="420" y="940" width="50" height="30" as="geometry" />
        </mxCell>
        <mxCell id="Van973CGo2YsoL5uyhcO-10" value="Tidak" style="text;html=1;align=center;verticalAlign=middle;resizable=0;points=[];autosize=1;strokeColor=none;fillColor=none;" parent="1" vertex="1">
          <mxGeometry x="420" y="810" width="50" height="30" as="geometry" />
        </mxCell>
        <mxCell id="Van973CGo2YsoL5uyhcO-11" value="Tidak" style="text;html=1;align=center;verticalAlign=middle;resizable=0;points=[];autosize=1;strokeColor=none;fillColor=none;" parent="1" vertex="1">
          <mxGeometry x="420" y="670" width="50" height="30" as="geometry" />
        </mxCell>
        <mxCell id="Van973CGo2YsoL5uyhcO-12" value="Tidak" style="text;html=1;align=center;verticalAlign=middle;resizable=0;points=[];autosize=1;strokeColor=none;fillColor=none;" parent="1" vertex="1">
          <mxGeometry x="420" y="540" width="50" height="30" as="geometry" />
        </mxCell>
        <mxCell id="Van973CGo2YsoL5uyhcO-13" value="Tidak" style="text;html=1;align=center;verticalAlign=middle;resizable=0;points=[];autosize=1;strokeColor=none;fillColor=none;" parent="1" vertex="1">
          <mxGeometry x="420" y="410" width="50" height="30" as="geometry" />
        </mxCell>
        <mxCell id="Van973CGo2YsoL5uyhcO-14" value="Tidak" style="text;html=1;align=center;verticalAlign=middle;resizable=0;points=[];autosize=1;strokeColor=none;fillColor=none;" parent="1" vertex="1">
          <mxGeometry x="420" y="290" width="50" height="30" as="geometry" />
        </mxCell>
      </root>
    </mxGraphModel>
  </diagram>
</mxfile>
